<?xml version="1.0" encoding="utf-8"?>
<!-- Generator: Adobe Illustrator 20.1.0, SVG Export Plug-In . SVG Version: 6.00 Build 0)  -->
<svg version="1.1" id="Capa_1" xmlns="http://www.w3.org/2000/svg" xmlns:xlink="http://www.w3.org/1999/xlink" x="0px" y="0px"
	 width="49.7px" height="49.7px" viewBox="0 0 49.7 49.7" style="enable-background:new 0 0 49.7 49.7;" xml:space="preserve">
<style type="text/css">
	.st0{fill:#EF4D4D;}
</style>
<g>
	<g>
		<g>
			<path class="st0" d="M-165.2,222.1c2.7,0,5-2.2,5-5c0-1.1-0.4-2.1-0.9-2.9c-0.9-1.3-2.4-2.1-4-2.1c-1.7,0-3.1,0.8-4,2.1
				c-0.6,0.8-0.9,1.8-0.9,2.9C-170.1,219.9-167.9,222.1-165.2,222.1z"/>
			<polygon class="st0" points="-154.3,211.1 -154.3,206.9 -154.3,206.3 -154.9,206.3 -159.1,206.3 -159.1,211.1 			"/>
			<path class="st0" d="M-165.2,192.3c-13.7,0-24.8,11.1-24.8,24.8s11.1,24.8,24.8,24.8s24.8-11.1,24.8-24.8
				C-140.3,203.5-151.5,192.3-165.2,192.3z M-151.1,214.3v11.6c0,3-2.4,5.5-5.5,5.5h-17.3c-3,0-5.5-2.4-5.5-5.5v-11.6v-5.8
				c0-3,2.4-5.5,5.5-5.5h17.3c3,0,5.5,2.4,5.5,5.5V214.3z"/>
			<path class="st0" d="M-157.5,217.2c0,4.3-3.5,7.7-7.7,7.7c-4.3,0-7.7-3.5-7.7-7.7c0-1,0.2-2,0.6-2.9h-4.2v11.6
				c0,1.5,1.2,2.7,2.7,2.7h17.3c1.5,0,2.7-1.2,2.7-2.7v-11.6h-4.2C-157.7,215.2-157.5,216.1-157.5,217.2z"/>
		</g>
	</g>
</g>
</svg>
