<?xml version="1.0" encoding="utf-8"?>
<!-- Generator: Adobe Illustrator 20.1.0, SVG Export Plug-In . SVG Version: 6.00 Build 0)  -->
<svg version="1.1" id="Capa_1" xmlns="http://www.w3.org/2000/svg" xmlns:xlink="http://www.w3.org/1999/xlink" x="0px" y="0px"
	 width="49.7px" height="49.7px" viewBox="0 0 49.7 49.7" style="enable-background:new 0 0 49.7 49.7;" xml:space="preserve">
<style type="text/css">
	.st0{fill:#FFFFFF;}
</style>
<g>
	<g>
		<g>
			<path class="st0" d="M-160.6,213.6c-2.1,0-3.1,1.2-3.6,2v-1.7h-4c0.1,1.1,0,12,0,12h4v-6.7c0-0.4,0-0.7,0.1-1
				c0.3-0.7,0.9-1.5,2.1-1.5c1.4,0,2,1.1,2,2.7v6.4h4l0,0v-6.9C-156,215.4-158,213.6-160.6,213.6z M-164.3,215.7L-164.3,215.7
				C-164.3,215.7-164.3,215.6-164.3,215.7L-164.3,215.7z"/>
			<rect x="-174.5" y="213.9" class="st0" width="4" height="12"/>
			<path class="st0" d="M-165.2,192.3c-13.7,0-24.8,11.1-24.8,24.8s11.1,24.8,24.8,24.8s24.8-11.1,24.8-24.8
				C-140.3,203.5-151.5,192.3-165.2,192.3z M-152,228.4c0,1.1-0.9,1.9-2,1.9h-22.6c-1.1,0-2-0.9-2-1.9v-22.8c0-1.1,0.9-1.9,2-1.9
				h22.6c1.1,0,2,0.9,2,1.9C-152,205.6-152,228.4-152,228.4z"/>
			<path class="st0" d="M-172.4,208.1c-1.4,0-2.3,0.9-2.3,2.1c0,1.2,0.9,2.1,2.2,2.1l0,0c1.4,0,2.3-0.9,2.3-2.1
				S-171.1,208.1-172.4,208.1z"/>
		</g>
	</g>
</g>
</svg>
